# xmcd CD database file
#
# Track frame offsets:
#	150
#	20882
#	41610
#
# Disc length: 780 seconds
#
# Revision: 2
# Processed by: cddbd v1.4PL0 Copyright (c) Steve Scherf et al.
# Submitted via: CDex 1.50
#
DISCID=21030a03
DTITLE=George Michael - Kissing a fool
DYEAR=1988
DGENRE=Pop
TTITLE0=Kissing a fool
TTITLE1=Kissing a fool Instrumental
TTITLE2=A Last Request
EXTD=YEAR: 1988
EXTT0=
EXTT1=
EXTT2=
PLAYORDER=
